# xmcd
# Copyright (C) 1995-1998 Ti Kan
#
# Track frame offsets:
#       150
#       13766
#       30660
#       42634
#       62642
#       82271
#       96177
#       111356
#       124665
#       152278
#       167339
#       181397
#
# Disc length: 2653 seconds
#
# Revision: 0
# Processed by: cddbd v1.5.2PL0 Copyright (c) Steve Scherf et al.
# Submitted via: CD-Import v1.0
#
DISCID=960a5b0c
DTITLE=Robertas - No Love Songs
DYEAR=2009
DGENRE=
TTITLE0=One Foot Away
TTITLE1=Don't Talk Too Far
TTITLE2=Malted Milk
TTITLE3=Wrote It Down And Burned It
TTITLE4=The Wind Cries Mary
TTITLE5=Boat Of Fear
TTITLE6=My Belle Line
TTITLE7=No Love Song
TTITLE8=Teclo
TTITLE9=Travel The World
TTITLE10=Do Not Love Too Long
TTITLE11=Happiness Is A Warm Gun
EXTD=
EXTT0=
EXTT1=
EXTT2=
EXTT3=
EXTT4=
EXTT5=
EXTT6=
EXTT7=
EXTT8=
EXTT9=
EXTT10=
EXTT11=
PLAYORDER=
